<svg xmlns="http://www.w3.org/2000/svg" width="840" height="586" viewBox="0 0 840 586">
<rect x="0.5" y="0.5" width="839" height="585" rx="10" fill="#0d1117" stroke="#30363d"/>
<g font-family="-apple-system, BlinkMacSystemFont, &quot;Segoe UI&quot;, Helvetica, Arial, sans-serif">
<text x="24" y="34" font-size="15" fill="#e6edf3" font-weight="600" text-anchor="start">Tokens burned</text>
<text x="816" y="34" font-size="12" fill="#9198a1" font-weight="400" text-anchor="end">Sep 8 – Oct 7, 2026 · last 30 days</text>
<text x="24" y="91" font-size="40" fill="#e6edf3" font-weight="700" text-anchor="start">8.56B</text>
<text x="24" y="113" font-size="12" fill="#9198a1" font-weight="400" text-anchor="start">398 sessions</text>
<circle cx="28" cy="145" r="4" fill="#e6edf3"/>
<text y="149" font-size="14" fill="#e6edf3"><tspan x="40">Codex</tspan><tspan dx="8" font-size="11" fill="#9198a1">297 sessions</tspan></text>
<text x="300" y="149" font-size="14" fill="#e6edf3" font-weight="600" text-anchor="end">5.03B</text>
<text x="40" y="168" font-size="12" fill="#9198a1" font-weight="400" text-anchor="start">58.8% of tokens · $5,904.21</text>
<circle cx="28" cy="197" r="4" fill="#D97757"/>
<text y="201" font-size="14" fill="#e6edf3"><tspan x="40">Claude Code</tspan><tspan dx="8" font-size="11" fill="#9198a1">101 sessions</tspan></text>
<text x="300" y="201" font-size="14" fill="#e6edf3" font-weight="600" text-anchor="end">3.53B</text>
<text x="40" y="220" font-size="12" fill="#9198a1" font-weight="400" text-anchor="start">41.2% of tokens · $1,924.45</text>
<text x="330" y="72" font-size="13" fill="#e6edf3" font-weight="600" text-anchor="start">Daily processed tokens</text>
<path d="M366 240H816" stroke="#21262d"/>
<text x="358" y="243" font-size="10" fill="#9198a1" font-weight="400" text-anchor="end">0</text>
<path d="M366 168H816" stroke="#21262d"/>
<text x="358" y="171" font-size="10" fill="#9198a1" font-weight="400" text-anchor="end">500M</text>
<path d="M366 96H816" stroke="#21262d"/>
<text x="358" y="99" font-size="10" fill="#9198a1" font-weight="400" text-anchor="end">1B</text>
<path d="M366.00,211.99 C368.59,210.56 376.34,203.71 381.52,203.40 C386.69,203.09 391.86,225.98 397.03,210.14 C402.21,194.29 407.38,123.29 412.55,108.34 C417.72,96.00 422.90,99.21 428.07,120.46 C433.24,141.70 438.41,217.23 443.59,235.82 C448.76,240.00 453.93,240.00 459.10,231.99 C464.28,222.69 469.45,181.25 474.62,179.99 C479.79,178.74 484.97,217.45 490.14,224.46 C495.31,231.46 500.48,221.33 505.66,222.02 C510.83,222.72 516.00,225.70 521.17,228.63 C526.34,231.56 531.52,237.70 536.69,239.60 C541.86,240.00 547.03,240.00 552.21,240.00 C557.38,237.22 562.55,226.10 567.72,222.95 C572.90,219.79 578.07,218.94 583.24,221.06 C588.41,223.18 593.59,233.11 598.76,235.67 C603.93,238.24 609.10,236.01 614.28,236.42 C619.45,236.84 624.62,238.82 629.79,238.15 C634.97,237.48 640.14,233.36 645.31,232.38 C650.48,231.39 655.66,233.22 660.83,232.24 C666.00,231.26 671.17,227.53 676.34,226.49 C681.52,225.44 686.69,232.22 691.86,225.97 C697.03,219.72 702.21,187.13 707.38,189.01 C712.55,190.89 717.72,233.29 722.90,237.25 C728.07,240.00 733.24,215.28 738.41,212.79 C743.59,210.30 748.76,218.11 753.93,222.33 C759.10,226.56 764.28,240.00 769.45,238.12 C774.62,234.24 779.79,203.97 784.97,199.05 C790.14,194.14 795.31,201.80 800.48,208.62 C805.66,215.45 813.41,234.77 816.00,240.00 L816.00,240 L366.00,240 Z" fill="#e6edf3" fill-opacity="0.12"/>
<path d="M366.00,211.99 C368.59,210.56 376.34,203.71 381.52,203.40 C386.69,203.09 391.86,225.98 397.03,210.14 C402.21,194.29 407.38,123.29 412.55,108.34 C417.72,96.00 422.90,99.21 428.07,120.46 C433.24,141.70 438.41,217.23 443.59,235.82 C448.76,240.00 453.93,240.00 459.10,231.99 C464.28,222.69 469.45,181.25 474.62,179.99 C479.79,178.74 484.97,217.45 490.14,224.46 C495.31,231.46 500.48,221.33 505.66,222.02 C510.83,222.72 516.00,225.70 521.17,228.63 C526.34,231.56 531.52,237.70 536.69,239.60 C541.86,240.00 547.03,240.00 552.21,240.00 C557.38,237.22 562.55,226.10 567.72,222.95 C572.90,219.79 578.07,218.94 583.24,221.06 C588.41,223.18 593.59,233.11 598.76,235.67 C603.93,238.24 609.10,236.01 614.28,236.42 C619.45,236.84 624.62,238.82 629.79,238.15 C634.97,237.48 640.14,233.36 645.31,232.38 C650.48,231.39 655.66,233.22 660.83,232.24 C666.00,231.26 671.17,227.53 676.34,226.49 C681.52,225.44 686.69,232.22 691.86,225.97 C697.03,219.72 702.21,187.13 707.38,189.01 C712.55,190.89 717.72,233.29 722.90,237.25 C728.07,240.00 733.24,215.28 738.41,212.79 C743.59,210.30 748.76,218.11 753.93,222.33 C759.10,226.56 764.28,240.00 769.45,238.12 C774.62,234.24 779.79,203.97 784.97,199.05 C790.14,194.14 795.31,201.80 800.48,208.62 C805.66,215.45 813.41,234.77 816.00,240.00" fill="none" stroke="#e6edf3" stroke-width="1.5"/>
<path d="M366.00,217.08 C368.59,219.22 376.34,226.10 381.52,229.92 C386.69,233.74 391.86,239.94 397.03,240.00 C402.21,240.00 407.38,231.88 412.55,230.27 C417.72,228.67 422.90,230.08 428.07,230.37 C433.24,230.65 438.41,231.09 443.59,232.01 C448.76,232.93 453.93,234.79 459.10,235.91 C464.28,237.03 469.45,238.55 474.62,238.74 C479.79,238.92 484.97,236.80 490.14,237.01 C495.31,237.22 500.48,239.89 505.66,240.00 C510.83,240.00 516.00,240.00 521.17,237.69 C526.34,233.26 531.52,213.26 536.69,213.42 C541.86,213.58 547.03,238.19 552.21,238.64 C557.38,239.08 562.55,219.59 567.72,216.08 C572.90,212.57 578.07,225.86 583.24,217.57 C588.41,209.28 593.59,176.86 598.76,166.35 C603.93,155.84 609.10,144.16 614.28,154.49 C619.45,164.82 624.62,214.68 629.79,228.33 C634.97,240.00 640.14,235.68 645.31,236.43 C650.48,237.17 655.66,233.71 660.83,232.81 C666.00,231.91 671.17,230.37 676.34,231.03 C681.52,231.68 686.69,238.22 691.86,236.72 C697.03,235.21 702.21,221.53 707.38,222.01 C712.55,222.49 717.72,240.00 722.90,239.59 C728.07,218.87 733.24,97.93 738.41,97.71 C743.59,97.49 748.76,214.54 753.93,238.26 C759.10,240.00 764.28,239.87 769.45,240.00 C774.62,240.00 779.79,240.00 784.97,239.05 C790.14,238.10 795.31,234.14 800.48,234.30 C805.66,234.46 813.41,239.05 816.00,240.00 L816.00,240 L366.00,240 Z" fill="#D97757" fill-opacity="0.12"/>
<path d="M366.00,217.08 C368.59,219.22 376.34,226.10 381.52,229.92 C386.69,233.74 391.86,239.94 397.03,240.00 C402.21,240.00 407.38,231.88 412.55,230.27 C417.72,228.67 422.90,230.08 428.07,230.37 C433.24,230.65 438.41,231.09 443.59,232.01 C448.76,232.93 453.93,234.79 459.10,235.91 C464.28,237.03 469.45,238.55 474.62,238.74 C479.79,238.92 484.97,236.80 490.14,237.01 C495.31,237.22 500.48,239.89 505.66,240.00 C510.83,240.00 516.00,240.00 521.17,237.69 C526.34,233.26 531.52,213.26 536.69,213.42 C541.86,213.58 547.03,238.19 552.21,238.64 C557.38,239.08 562.55,219.59 567.72,216.08 C572.90,212.57 578.07,225.86 583.24,217.57 C588.41,209.28 593.59,176.86 598.76,166.35 C603.93,155.84 609.10,144.16 614.28,154.49 C619.45,164.82 624.62,214.68 629.79,228.33 C634.97,240.00 640.14,235.68 645.31,236.43 C650.48,237.17 655.66,233.71 660.83,232.81 C666.00,231.91 671.17,230.37 676.34,231.03 C681.52,231.68 686.69,238.22 691.86,236.72 C697.03,235.21 702.21,221.53 707.38,222.01 C712.55,222.49 717.72,240.00 722.90,239.59 C728.07,218.87 733.24,97.93 738.41,97.71 C743.59,97.49 748.76,214.54 753.93,238.26 C759.10,240.00 764.28,239.87 769.45,240.00 C774.62,240.00 779.79,240.00 784.97,239.05 C790.14,238.10 795.31,234.14 800.48,234.30 C805.66,234.46 813.41,239.05 816.00,240.00" fill="none" stroke="#D97757" stroke-width="1.5"/>
<text x="366" y="260" font-size="10" fill="#9198a1" font-weight="400" text-anchor="start">SEP 8</text>
<text x="583.241" y="260" font-size="10" fill="#9198a1" font-weight="400" text-anchor="middle">SEP 22</text>
<text x="816" y="260" font-size="10" fill="#9198a1" font-weight="400" text-anchor="end">OCT 7</text>
<text x="24" y="300" font-size="13" fill="#e6edf3" font-weight="600" text-anchor="start">Totals</text>
<text x="24" y="325" font-size="12" fill="#9198a1" font-weight="400" text-anchor="start">Processed tokens</text>
<text x="24" y="347" font-size="15" fill="#e6edf3" font-weight="600" text-anchor="start">8.56B</text>
<text x="182.4" y="325" font-size="12" fill="#9198a1" font-weight="400" text-anchor="start">Cached input</text>
<text x="182.4" y="347" font-size="15" fill="#e6edf3" font-weight="600" text-anchor="start">8.3B</text>
<text x="340.8" y="325" font-size="12" fill="#9198a1" font-weight="400" text-anchor="start">Uncached input</text>
<text x="340.8" y="347" font-size="15" fill="#e6edf3" font-weight="600" text-anchor="start">232M</text>
<text x="499.2" y="325" font-size="12" fill="#9198a1" font-weight="400" text-anchor="start">Output</text>
<text x="499.2" y="347" font-size="15" fill="#e6edf3" font-weight="600" text-anchor="start">31.6M</text>
<text x="657.6" y="325" font-size="12" fill="#9198a1" font-weight="400" text-anchor="start">Est. API cost</text>
<text x="657.6" y="347" font-size="15" fill="#e6edf3" font-weight="600" text-anchor="start">$7,828.66</text>
<text x="24" y="380" font-size="11" fill="#9198a1" font-weight="400" text-anchor="start">Model</text>
<text x="560" y="380" font-size="11" fill="#9198a1" font-weight="400" text-anchor="end">Cost</text>
<text x="680" y="380" font-size="11" fill="#9198a1" font-weight="400" text-anchor="end">Share</text>
<text x="816" y="380" font-size="11" fill="#9198a1" font-weight="400" text-anchor="end">Tokens</text>
<path d="M24 389H816" stroke="#21262d"/>
<circle cx="28" cy="404" r="4" fill="#e6edf3"/>
<text x="40" y="408" font-size="13" fill="#e6edf3" font-weight="400" text-anchor="start">gpt-6-astra</text>
<text x="560" y="408" font-size="13" fill="#e6edf3" font-weight="400" text-anchor="end">$5,728.12</text>
<text x="680" y="408" font-size="13" fill="#e6edf3" font-weight="400" text-anchor="end">47.2%</text>
<text x="816" y="408" font-size="13" fill="#e6edf3" font-weight="400" text-anchor="end">4.04B</text>
<path d="M24 417H816" stroke="#21262d"/>
<circle cx="28" cy="432" r="4" fill="#D97757"/>
<text x="40" y="436" font-size="13" fill="#e6edf3" font-weight="400" text-anchor="start">claude-opus-5-5</text>
<text x="560" y="436" font-size="13" fill="#e6edf3" font-weight="400" text-anchor="end">$964.93</text>
<text x="680" y="436" font-size="13" fill="#e6edf3" font-weight="400" text-anchor="end">28.9%</text>
<text x="816" y="436" font-size="13" fill="#e6edf3" font-weight="400" text-anchor="end">2.48B</text>
<path d="M24 445H816" stroke="#21262d"/>
<circle cx="28" cy="460" r="4" fill="#e6edf3"/>
<text x="40" y="464" font-size="13" fill="#e6edf3" font-weight="400" text-anchor="start">gpt-6.1-sol</text>
<text x="560" y="464" font-size="13" fill="#e6edf3" font-weight="400" text-anchor="end">$165.72</text>
<text x="680" y="464" font-size="13" fill="#e6edf3" font-weight="400" text-anchor="end">11.4%</text>
<text x="816" y="464" font-size="13" fill="#e6edf3" font-weight="400" text-anchor="end">980M</text>
<path d="M24 473H816" stroke="#21262d"/>
<circle cx="28" cy="488" r="4" fill="#D97757"/>
<text x="40" y="492" font-size="13" fill="#e6edf3" font-weight="400" text-anchor="start">claude-fable-5-1</text>
<text x="560" y="492" font-size="13" fill="#e6edf3" font-weight="400" text-anchor="end">$606.28</text>
<text x="680" y="492" font-size="13" fill="#e6edf3" font-weight="400" text-anchor="end">6.7%</text>
<text x="816" y="492" font-size="13" fill="#e6edf3" font-weight="400" text-anchor="end">578M</text>
<path d="M24 501H816" stroke="#21262d"/>
<circle cx="28" cy="516" r="4" fill="#D97757"/>
<text x="40" y="520" font-size="13" fill="#e6edf3" font-weight="400" text-anchor="start">claude-opus-5</text>
<text x="560" y="520" font-size="13" fill="#e6edf3" font-weight="400" text-anchor="end">$174.80</text>
<text x="680" y="520" font-size="13" fill="#e6edf3" font-weight="400" text-anchor="end">2.7%</text>
<text x="816" y="520" font-size="13" fill="#e6edf3" font-weight="400" text-anchor="end">235M</text>
<path d="M24 529H816" stroke="#21262d"/>
<circle cx="28" cy="544" r="4" fill="#D97757"/>
<text x="40" y="548" font-size="13" fill="#e6edf3" font-weight="400" text-anchor="start">claude-opus-4-8</text>
<text x="560" y="548" font-size="13" fill="#e6edf3" font-weight="400" text-anchor="end">$168.67</text>
<text x="680" y="548" font-size="13" fill="#e6edf3" font-weight="400" text-anchor="end">2.4%</text>
<text x="816" y="548" font-size="13" fill="#e6edf3" font-weight="400" text-anchor="end">207M</text>
<path d="M24 557H816" stroke="#21262d"/>
<text x="24" y="571" font-size="10" fill="#9198a1" font-weight="400" text-anchor="start">From local Claude Code + Codex logs via T3 Code · updated 2026-10-06</text>
</g>
</svg>
